PathFileType	4	(X/Y/Z)	16_2_113_p1_0-247.trc
DataRate	CameraRate	NumFrames	NumMarkers	Units	OrigDataRate	OrigDataStartFrame	OrigNumFrames
60.0	60.0	5	27	m	60.0	93	248
Frame#	Time	RHip			RKnee			RAnkle			RBigToe			RSmallToe			RHeel			LHip			LKnee			LAnkle			LBigToe			LSmallToe			LHeel			Neck			Head			Nose			RShoulder			RElbow			RWrist			RThumb			RIndex			RPinky			LShoulder			LElbow			LWrist			LThumb			LIndex			LPinky			
		X1	Y1	Z1	X2	Y2	Z2	X3	Y3	Z3	X4	Y4	Z4	X5	Y5	Z5	X6	Y6	Z6	X7	Y7	Z7	X8	Y8	Z8	X9	Y9	Z9	X10	Y10	Z10	X11	Y11	Z11	X12	Y12	Z12	X13	Y13	Z13	X14	Y14	Z14	X15	Y15	Z15	X16	Y16	Z16	X17	Y17	Z17	X18	Y18	Z18	X19	Y19	Z19	X20	Y20	Z20	X21	Y21	Z21	X22	Y22	Z22	X23	Y23	Z23	X24	Y24	Z24	X25	Y25	Z25	X26	Y26	Z26	X27	Y27	Z27	
93	1.55	0.30507741457366994	0.4931539309357866	0.5195864197210248	0.2979281026293079	0.629991163691106	0.9653953897567135	0.2776929522812594	0.7175829894535334	1.3707341856557171	0.2318651608959807	0.40659945235893336	1.3485148035080143	0.3087606023543532	0.45314267507814426	1.3632937127734872	0.249869775756229	0.7968484470915094	1.4281657660244127	0.0875936956645796	0.5399696774030582	0.5336681479785859	0.08909406484989349	0.6252911005532162	0.9404777762663228	0.10311554832049881	0.7305479166711438	1.3561016230178156	0.06488787304748464	0.44903190500015755	1.359883729207464	0.0057369795993651935	0.5373104903352194	1.376430264329898	0.12278080904374983	0.7936945489806355	1.4367113500798954	0.1770060494829994	0.42166126971370593	-0.10990226697489613	0.1450598787791389	0.28887694916158246	-0.35152959560190794	0.11626386002932099	0.28671122916295616	-0.21139243125314197	0.35238058021101876	0.4380338920337996	-0.045746746291769676	0.4370933597703671	0.4972995273721746	0.23183172098778587	0.42211691459777173	0.4142633325984597	0.5004076788311712	0.35578373863503376	0.2842120993534835	0.5885907122398382	0.3854751756783988	0.294578763046986	0.6179868441982452	0.40081722074706144	0.37158487994929307	0.6321112583788285	0.01374938162720025	0.4960851094938404	-0.04209496311253322	-0.05446450716754178	0.5359903193700724	0.25638884624603564	-0.026329457669922476	0.49605530237087014	0.5465449961779146	0.014794060576095306	0.5006302435511951	0.6565531263385022	-0.005002224479565975	0.4813337165068062	0.6831030170802153	-0.03929594783007626	0.5073947060808579	0.6795521426662088
94	1.5666666666666667	0.30462150278540606	0.49344895586865845	0.5232006118882183	0.29696859596562136	0.6283673469291755	0.9609713725084782	0.27774167976827197	0.7176573504149862	1.3708427659574824	0.23201876224756307	0.42581393586228916	1.3536580985289972	0.30912068142552795	0.45405441257631424	1.363396185682979	0.2514838362259854	0.798543809202053	1.4382059838477528	0.08718365113436449	0.5400234327553946	0.5368524501560525	0.08916921626483067	0.6258665025718285	0.940735116055107	0.1031585265547426	0.7307329258327304	1.3563821091439265	0.06490989968119694	0.44900299924107934	1.3598574453935923	0.0057625692138192465	0.5372788173903833	1.3763771917346834	0.12282073297457806	0.7937950218136612	1.4368982825014354	0.1770831971733135	0.4219456767865203	-0.1132864972536124	0.149005463290033	0.28881198943968117	-0.3523793752142766	0.116344141121338	0.28701742997310803	-0.21162761677448172	0.35241412710951253	0.43804204335341057	-0.0457365701429049	0.4324248452144009	0.4854198726119721	0.2308518818965104	0.4220220257357942	0.4140060284703631	0.503721507566157	0.34039283048808805	0.28397701625680943	0.5890489903000988	0.38263900763951186	0.30738211110423874	0.6209619874777084	0.39491334979423576	0.37668727976335203	0.636900424564399	0.013637345791047039	0.49601028901291055	-0.04572578496229903	-0.05446302410541453	0.536053895854766	0.25603855167565054	-0.022018171004457684	0.49756839734941793	0.5469029762101243	0.011708685993612165	0.4885550931633853	0.6542136967053616	-0.004841341883391307	0.4810645555556925	0.6861052260689087	-0.026945767530821785	0.5067481703888185	0.682402145878601
95	1.5833333333333333	0.3047749039217377	0.49331463747757204	0.5233869795474136	0.29778296060507153	0.6301147994286732	0.965817040877149	0.2823312850427643	0.7194049997894976	1.371438199647725	0.23215720885224297	0.4255686998033319	1.3536278903203676	0.30922735646703975	0.45372253511543414	1.3632692533842687	0.25146472949670173	0.7987570024827717	1.4383039612165487	0.08722171934103666	0.5398702611937135	0.53689077482929	0.08560337963768995	0.6433828641348265	0.9506290643802269	0.10345096155174735	0.7295363131547814	1.361110940058883	0.06488135204658503	0.44913613151550646	1.3598835146959642	0.005748533156645338	0.5374004651372142	1.3763918875143455	0.12281138092308146	0.7938807331031362	1.43654902863542	0.17723020277195534	0.4220075785312913	-0.11657490075139235	0.15648067140562805	0.30162601830963537	-0.35341870909104733	0.11652447948184427	0.2872389484648913	-0.2149809357947268	0.35940922012949494	0.43587654924167507	-0.04598929762875129	0.4323913610778317	0.48515823125056384	0.23077872082715037	0.41112588131658234	0.42606232238319447	0.5064027577047019	0.3289293748382141	0.284637975399839	0.5923317776752485	0.3685014713023499	0.32177558619775687	0.6211605386295793	0.3970058785625915	0.3618117362700911	0.63339072826837	0.013692349647648327	0.49605237083057574	-0.045919411329684155	-0.05472654215461132	0.5342377076434068	0.2518252416619429	-0.021831968940253355	0.49735488387790083	0.5466278210957667	0.012317268328377994	0.4874493706177748	0.6502027611300283	-0.004147192786985309	0.48036545971311906	0.682235408930483	-0.0267017589721459	0.5066833270205868	0.682423511854761
96	1.6	0.30560392860872415	0.49461192574712715	0.5279715648025627	0.2978904420233872	0.6303113510029027	0.9658473604158743	0.28236979527211664	0.7193494236676309	1.3713999008130549	0.2364767238801604	0.4279094632262325	1.3550030329436324	0.3065358700986545	0.469705238879438	1.3710552308727137	0.2501525850421208	0.7954811239161456	1.4310691592579938	0.08698716858193652	0.5398775163260544	0.5372408051338635	0.0858604605588108	0.6439116009861309	0.950786345233848	0.1038971829559938	0.7330895601198879	1.362014938899396	0.06472863435465642	0.44975476692167166	1.3600234853222775	0.005253727951313787	0.5390163779858307	1.37283521634429	0.12268451294758495	0.7938479365079151	1.4365729857245821	0.177217479449446	0.4218058149798614	-0.11340480839268056	0.16033313352378956	0.2899160529793444	-0.3556100932946205	0.1165242543272262	0.2867332168940383	-0.21490285750281132	0.35944402937436026	0.43616333713716654	-0.04594472147121228	0.4279863606691792	0.47319053901640745	0.22993442316023266	0.40309616393251063	0.41474333554963555	0.5083620295899276	0.32393813666240684	0.2745050558561473	0.5975398306100109	0.360807572430963	0.32526385411982056	0.6289223895337412	0.38575683031712543	0.36282321111630145	0.6385006871550538	0.013707514140862746	0.4960949019068499	-0.04617048185307415	-0.054531933933601784	0.5345429637574016	0.25524590300301386	-0.01219138424562346	0.48530961390493327	0.5401108226663858	0.013082915837022398	0.4865967416630595	0.6493584296895997	0.004133965455373341	0.4689523497573894	0.6761414081368434	-0.021481104504956768	0.49335264484106545	0.6787534761621681
97	1.6166666666666667	0.3048143505197859	0.49327063671778026	0.5237097717630121	0.2978109211282168	0.6302137471063709	0.9659456123624695	0.2823820643304599	0.7192928484974733	1.3713130736027248	0.23641061344609254	0.4279306331672878	1.35489746320066	0.30957822479540303	0.45379939703425776	1.3632583235727898	0.2514905137821348	0.7981170248546113	1.4371399890693426	0.08657612201961465	0.5379361378880773	0.5324905840722858	0.09005661739613358	0.6283905188539065	0.9456518549007202	0.10395065558938955	0.7328427178404854	1.3618851999867005	0.06474904995217597	0.44929782033846005	1.3600109286034963	0.005255072132681282	0.5386330793371242	1.3729658274939096	0.12276201292591317	0.7936659718098076	1.436292352541595	0.17729744066057784	0.42169469227562206	-0.11343669622571759	0.17088594292356402	0.290279608988477	-0.36233379669566257	0.1166264978147668	0.2868154922544988	-0.22108801398845246	0.35954792669065777	0.43620425593201095	-0.04606201746489615	0.42779149528935556	0.47316970297868205	0.23354719579010388	0.40167759749259124	0.41345560665987957	0.5084679295826837	0.31972137212314344	0.285346844144065	0.5963539362271739	0.3553219323232429	0.32302907003752585	0.6211905522637123	0.3849358335780721	0.3609245639890788	0.6349402136053375	0.013760193180323376	0.49604210648186103	-0.04623085872346442	-0.050368044332032604	0.5363018932018536	0.2515943519179829	-0.012483023692554971	0.48394784736992696	0.5354854681963946	0.015990271190245372	0.4991926829753659	0.6520076043133062	0.004284686373885166	0.46868157368713714	0.6790976183002418	-0.017616498122074255	0.4941482609268057	0.6785438125115594
